<?xml version="1.0" standalone="no"?>
<!DOCTYPE svg PUBLIC "-//W3C//DTD SVG 20010904//EN"
 "http://www.w3.org/TR/2001/REC-SVG-20010904/DTD/svg10.dtd">
<svg version="1.0" xmlns="http://www.w3.org/2000/svg"
 width="720.000000pt" height="759.000000pt" viewBox="0 0 720.000000 759.000000"
 preserveAspectRatio="xMidYMid meet">

<g transform="translate(0.000000,759.000000) scale(0.100000,-0.100000)"
fill="#000000" stroke="none">
<path d="M7051 6424 c0 -11 3 -14 6 -6 3 7 2 16 -1 19 -3 4 -6 -2 -5 -13z"/>
<path d="M7069 6374 c14 -26 61 -234 61 -272 0 -17 5 -34 12 -38 8 -5 10 12 5
67 -8 84 -57 251 -76 257 -9 3 -10 0 -2 -14z"/>
<path d="M6155 5346 c-44 -45 -273 -270 -510 -500 -569 -555 -1852 -1841
-1870 -1875 -7 -15 -31 -41 -52 -56 -44 -34 -354 -343 -428 -428 -27 -32 -66
-70 -86 -85 -20 -15 -170 -157 -333 -317 -446 -435 -571 -520 -946 -640 -58
-19 -131 -37 -163 -40 -31 -4 -57 -8 -57 -11 0 -3 74 -149 169 -332 7 -15 26
-40 40 -57 32 -35 82 -102 82 -110 -1 -9 46 -55 57 -55 11 0 26 -29 23 -47 -1
-8 4 -10 13 -7 10 4 20 -3 27 -20 12 -25 112 -83 137 -78 6 2 13 -2 13 -8 1
-5 2 -14 3 -18 1 -11 57 -62 67 -62 5 0 9 7 9 15 0 8 9 15 20 15 11 0 19 -3
19 -7 -4 -25 4 -33 34 -33 21 0 38 -7 46 -19 8 -11 20 -17 26 -15 7 3 19 -2
28 -10 18 -18 37 -21 37 -6 0 6 7 6 19 -2 15 -9 22 -8 36 5 9 10 22 14 28 10
7 -4 4 -9 -9 -14 -17 -7 -17 -8 4 -8 12 -1 22 3 22 8 0 12 52 21 79 14 11 -3
21 -12 21 -19 0 -20 18 -17 23 3 4 15 5 15 6 2 1 -19 61 -22 61 -3 0 6 7 15
16 18 23 9 31 7 14 -4 -17 -11 -13 -15 23 -24 23 -5 27 -3 27 14 0 26 26 26
40 -1 12 -20 25 -18 25 4 0 7 12 11 28 10 25 -2 27 1 21 20 -6 21 -6 21 15 -2
21 -24 21 -24 39 -5 9 11 25 18 35 16 9 -2 17 2 17 10 0 8 4 6 11 -5 12 -20
31 -14 23 7 -9 24 15 28 33 6 24 -28 28 -26 43 20 7 22 16 40 20 40 4 0 19
-10 34 -21 15 -12 30 -19 33 -16 8 9 -7 28 -18 22 -14 -9 -11 4 13 52 l22 44
58 -5 c46 -3 58 -1 58 10 0 9 -4 12 -10 9 -5 -3 -10 -1 -10 5 0 6 7 13 15 16
18 7 20 30 3 37 -8 3 -6 6 5 6 10 1 17 9 17 22 0 18 4 20 25 15 20 -5 25 -3
25 14 0 23 15 27 24 5 3 -8 10 -15 15 -15 15 0 42 31 35 41 -3 5 -2 9 3 8 24
-4 42 3 46 18 4 16 5 16 6 -1 0 -10 9 -25 18 -32 16 -12 16 -15 3 -23 -8 -6
-11 -13 -7 -17 12 -12 35 16 30 36 -3 11 -9 20 -14 20 -20 0 -8 29 13 32 14 2
24 12 28 27 7 29 33 43 28 15 -2 -11 4 -20 13 -22 12 -2 17 4 18 20 3 72 6 78
30 78 19 0 22 4 17 23 -4 17 1 30 19 45 14 12 32 22 40 22 8 0 18 8 24 17 7
13 21 17 60 15 53 -2 66 5 50 28 -8 12 -12 12 -16 3 -7 -18 -24 -16 -17 2 4 8
1 15 -5 15 -6 0 -11 5 -11 11 0 5 4 8 10 4 13 -8 60 5 60 17 0 5 -9 12 -19 15
-11 3 -22 12 -25 20 -5 12 -1 14 16 8 70 -21 90 -15 48 15 -28 20 -25 30 8 31
23 0 24 1 7 8 -19 8 -19 8 3 16 19 5 23 13 20 33 -3 24 -1 27 28 27 17 0 38
-6 46 -13 22 -18 37 4 31 46 -6 39 -25 41 -59 5 -30 -32 -38 -27 -22 15 11 29
16 32 55 32 38 0 43 3 43 23 0 18 2 19 10 7 9 -13 12 -13 24 3 8 10 16 13 17
8 2 -6 34 -13 71 -15 64 -4 67 -4 55 15 -13 21 -23 24 -32 9 -12 -20 -44 -10
-66 21 -16 23 -19 33 -10 42 8 8 11 7 11 -6 0 -9 5 -17 10 -17 6 0 10 4 10 10
0 5 11 12 25 16 14 3 25 12 25 20 0 8 5 14 10 14 21 0 9 19 -20 32 -16 7 -30
19 -30 25 0 17 19 16 26 -1 3 -7 17 -14 32 -14 l26 0 -22 18 c-30 25 -28 33 8
25 34 -8 40 4 10 23 -11 7 -20 17 -20 24 0 6 7 4 18 -5 23 -21 32 -21 32 -2 0
21 12 19 39 -6 12 -12 23 -19 24 -18 1 2 10 18 19 35 9 17 15 40 12 51 -4 15
0 22 18 27 17 6 19 9 8 13 -17 7 -30 23 -30 38 0 6 4 4 9 -4 6 -9 11 -10 15
-3 4 6 13 9 21 5 11 -3 15 2 15 18 0 13 4 30 9 38 12 19 30 5 24 -19 -6 -22
11 -27 37 -10 11 7 11 10 2 10 -7 0 -10 5 -7 10 3 6 2 10 -4 10 -21 0 -6 41
17 47 13 3 35 17 48 30 25 25 71 29 67 5 -2 -6 2 -12 7 -12 6 0 10 9 10 20 0
13 7 20 20 20 14 0 20 7 21 23 1 16 2 18 6 5 2 -10 11 -18 19 -18 8 0 14 -7
14 -15 0 -8 -7 -15 -15 -15 -8 0 -15 -4 -15 -10 0 -15 19 -12 37 6 15 14 15
18 -1 46 -10 16 -15 32 -12 35 3 4 1 12 -5 20 -6 7 -10 13 -8 14 48 9 51 9 40
-5 -15 -18 15 -32 35 -15 8 6 26 8 44 4 20 -4 30 -3 30 5 0 6 -3 9 -7 7 -5 -3
-18 -1 -31 4 -19 7 -21 12 -12 28 5 11 10 31 10 45 0 19 5 26 19 26 11 0 21
-6 24 -12 3 -10 7 -10 20 1 19 15 23 41 7 41 -5 0 -10 9 -10 20 0 11 5 20 10
20 6 0 10 -7 10 -15 0 -8 5 -15 10 -15 6 0 10 11 10 25 0 29 6 31 27 10 19
-19 33 -11 33 21 0 15 6 24 15 24 8 0 15 5 15 10 0 13 -12 13 -45 0 -24 -9
-25 -8 -15 10 6 11 16 18 21 14 6 -3 9 2 7 12 -2 15 2 18 20 16 15 -2 22 2 22
12 0 9 -7 16 -15 16 -8 0 -15 5 -15 10 0 14 46 60 60 60 16 0 12 -37 -5 -44
-19 -7 -20 -36 -1 -36 8 0 17 7 20 16 3 8 10 12 16 9 6 -3 10 5 10 19 0 13 3
32 7 42 5 14 2 16 -16 11 -17 -4 -21 -2 -17 10 3 8 6 17 6 19 0 2 9 4 20 4 11
0 20 -4 20 -10 0 -16 27 -12 34 5 3 8 12 12 21 9 9 -4 15 -1 15 9 0 8 13 17
31 21 34 7 55 24 62 52 4 16 5 16 6 2 2 -31 20 -19 27 16 3 19 12 37 19 40 10
3 10 -3 2 -30 -6 -19 -8 -37 -4 -40 12 -12 27 8 28 39 1 18 3 24 6 15 5 -19
23 -25 23 -8 0 6 9 10 20 10 11 0 20 4 20 9 0 4 -11 6 -25 3 -29 -5 -32 4 -8
30 13 14 13 18 2 18 -12 0 -12 2 0 9 7 5 16 30 19 57 2 27 10 52 16 56 8 5 7
8 -1 8 -7 0 -13 5 -13 10 0 6 7 10 15 10 8 0 15 -4 15 -10 0 -5 7 -10 15 -10
8 0 15 5 15 10 0 6 11 8 25 4 33 -8 33 11 0 32 l-26 17 53 26 c37 19 53 33 53
46 0 19 12 35 28 35 4 0 8 -17 8 -37 1 -28 3 -31 6 -13 3 14 10 31 15 38 7 8
7 12 -1 12 -17 0 -13 17 5 24 20 8 19 8 28 -21 5 -16 2 -23 -14 -28 -11 -3
-20 -13 -20 -22 0 -10 6 -13 16 -9 9 3 18 6 20 6 12 0 24 53 14 65 -8 9 -8 15
0 20 5 3 10 20 10 36 0 32 24 49 43 30 6 -6 18 -11 27 -11 11 1 9 5 -7 19 -28
23 -28 26 -3 53 20 22 24 19 21 -19 -2 -24 18 -41 28 -25 4 6 18 15 31 21 18
7 20 10 8 10 -10 1 -18 8 -18 17 0 9 5 12 12 8 20 -13 58 -10 58 3 0 7 -4 13
-10 13 -5 0 -10 5 -10 10 0 6 16 10 35 10 24 0 35 5 35 15 0 14 4 17 33 19 14
1 57 44 57 57 0 5 7 9 15 9 21 0 19 13 -5 28 -17 11 -20 9 -27 -18 -9 -35 -26
-43 -32 -15 -2 11 -8 23 -15 28 -8 5 -7 10 4 17 11 7 16 5 18 -5 5 -24 24 -17
22 8 -4 40 0 47 25 47 14 0 25 5 25 10 0 6 9 10 19 10 11 0 21 5 23 11 6 17
34 0 47 -28 17 -37 21 -25 10 26 -5 24 -8 49 -5 55 2 6 5 4 5 -5 1 -13 11 -16
41 -15 45 1 44 0 30 27 -7 13 -7 19 0 19 5 0 10 9 10 19 0 15 6 19 25 16 14
-1 28 2 31 6 3 5 -2 9 -10 9 -9 0 -16 7 -16 15 0 8 5 15 11 15 14 0 39 -26 39
-40 0 -6 4 -9 9 -6 4 3 6 17 3 31 -4 23 -1 25 30 25 19 0 39 -5 46 -12 6 -6
15 -9 19 -5 4 4 1 13 -5 19 -7 7 -12 22 -12 35 0 13 -5 23 -11 23 -8 0 -8 5 1
15 11 13 15 12 36 -8 13 -12 24 -30 24 -39 0 -9 4 -19 8 -22 5 -3 7 21 5 52
-2 31 -3 67 -3 80 0 23 -16 30 -23 10 -3 -10 -8 -10 -21 1 -17 14 -18 34 -2
31 5 -1 12 3 15 9 5 7 15 4 30 -10 12 -11 29 -18 37 -15 7 3 14 1 14 -4 0 -6
5 -10 10 -10 19 0 10 32 -10 37 -22 6 -27 19 -9 25 9 3 8 10 -1 24 -8 14 -10
31 -5 50 4 16 10 23 12 17 3 -7 14 -13 25 -13 14 0 18 5 14 15 -6 18 5 20 21
4 9 -9 16 -8 28 5 9 9 20 16 25 16 13 0 -2 44 -19 57 -14 11 -13 12 9 13 34 0
83 43 68 58 -8 8 -5 14 14 21 41 15 44 31 6 31 -23 0 -29 3 -19 9 8 5 20 7 27
4 9 -3 11 6 7 35 -3 24 -1 42 6 46 15 10 14 46 -1 46 -9 0 -9 3 0 12 10 10 17
10 33 0 17 -11 23 -10 39 10 18 23 18 23 -1 26 -29 5 -44 39 -24 58 30 30 11
109 -34 140 -12 9 -21 22 -21 30 0 18 -41 108 -52 112 -13 6 -9 24 9 44 15 17
15 18 -5 18 -15 0 -20 5 -16 15 4 9 -3 16 -20 21 -28 7 -34 19 -13 27 9 4 9 8
0 14 -6 4 -15 24 -20 43 -7 25 -16 36 -31 38 -12 2 -22 9 -22 16 0 14 -76 86
-90 86 -6 0 -9 4 -7 8 4 15 -256 266 -320 310 -35 23 -66 42 -70 41 -5 0 -44
-37 -88 -83z m635 -1270 c0 -2 -3 -11 -6 -20 -9 -23 -24 -20 -24 4 0 11 7 20
15 20 8 0 15 -2 15 -4z m-127 -138 c-9 -15 -23 -8 -23 12 0 17 2 19 14 8 8 -7
12 -16 9 -20z m-98 -58 c3 -5 1 -10 -4 -10 -6 0 -11 5 -11 10 0 6 2 10 4 10 3
0 8 -4 11 -10z m85 -82 c0 -13 -23 -5 -28 10 -2 7 2 10 12 6 9 -3 16 -11 16
-16z m-252 -108 c-15 -24 -22 -19 -13 9 3 12 11 19 16 16 5 -4 3 -14 -3 -25z
m-58 -50 c0 -5 -5 -10 -11 -10 -5 0 -7 5 -4 10 3 6 8 10 11 10 2 0 4 -4 4 -10z
m32 -35 c0 -5 -5 -11 -11 -13 -6 -2 -11 4 -11 13 0 9 5 15 11 13 6 -2 11 -8
11 -13z m-482 -295 c0 -5 -4 -10 -10 -10 -5 0 -10 5 -10 10 0 6 5 10 10 10 6
0 10 -4 10 -10z m-40 -136 c0 -8 -4 -12 -10 -9 -5 3 -10 10 -10 16 0 5 5 9 10
9 6 0 10 -7 10 -16z m-134 -51 c-10 -10 -19 5 -10 18 6 11 8 11 12 0 2 -7 1
-15 -2 -18z m69 17 c3 -6 -1 -7 -9 -4 -18 7 -21 14 -7 14 6 0 13 -4 16 -10z
m-177 -101 c-3 -8 -7 -3 -11 10 -4 17 -3 21 5 13 5 -5 8 -16 6 -23z m22 -59
c0 -5 -2 -10 -4 -10 -3 0 -8 5 -11 10 -3 6 -1 10 4 10 6 0 11 -4 11 -10z
m-120 -51 c0 -6 -4 -7 -10 -4 -5 3 -10 11 -10 16 0 6 5 7 10 4 6 -3 10 -11 10
-16z m60 -38 c0 -5 -7 -25 -15 -44 -8 -20 -12 -43 -9 -51 3 -9 2 -16 -4 -16
-5 0 -10 26 -10 58 -1 50 2 58 19 59 10 1 19 -2 19 -6z m-330 -215 c0 -3 -4
-8 -10 -11 -5 -3 -10 -1 -10 4 0 6 5 11 10 11 6 0 10 -2 10 -4z m55 -6 c3 -5
-1 -10 -10 -10 -9 0 -13 5 -10 10 3 6 8 10 10 10 2 0 7 -4 10 -10z m-235 -264
c0 -3 -4 -8 -10 -11 -5 -3 -10 -1 -10 4 0 6 5 11 10 11 6 0 10 -2 10 -4z
m-310 -306 c0 -5 -12 -13 -26 -16 -16 -4 -23 -12 -20 -20 6 -16 -10 -19 -19
-4 -3 5 2 18 12 29 19 20 53 28 53 11z m-150 -101 c0 -5 -7 -9 -15 -9 -15 0
-20 12 -9 23 8 8 24 -1 24 -14z m-10 -34 c16 -19 10 -19 -26 0 -25 13 -26 15
-8 15 12 0 27 -7 34 -15z m-45 -55 c4 -6 -5 -10 -19 -10 -14 0 -26 5 -26 10 0
6 9 10 19 10 11 0 23 -4 26 -10z m-5 -49 c0 -5 3 -16 6 -25 4 -11 1 -16 -10
-16 -10 0 -16 9 -16 25 0 14 5 25 10 25 6 0 10 -4 10 -9z m-213 -157 c-3 -3
-12 -4 -19 -1 -8 3 -5 6 6 6 11 1 17 -2 13 -5z m-457 -563 c0 -12 -20 -25 -27
-18 -7 7 6 27 18 27 5 0 9 -4 9 -9z m-153 -173 c-3 -8 -6 -5 -6 6 -1 11 2 17
5 13 3 -3 4 -12 1 -19z m-467 -295 c0 -5 -5 -15 -10 -23 -8 -12 -10 -11 -10 8
0 12 5 22 10 22 6 0 10 -3 10 -7z m-140 -69 c0 -2 -7 -4 -15 -4 -8 0 -15 4
-15 10 0 5 7 7 15 4 8 -4 15 -8 15 -10z m-100 -24 c0 -5 -4 -10 -10 -10 -5 0
-10 5 -10 10 0 6 5 10 10 10 6 0 10 -4 10 -10z"/>
<path d="M4992 5330 c0 -14 2 -19 5 -12 2 6 2 18 0 25 -3 6 -5 1 -5 -13z"/>
<path d="M960 5301 c0 -5 4 -12 9 -15 5 -3 21 -30 35 -61 44 -89 229 -315 259
-315 4 0 19 -11 33 -25 14 -14 36 -33 50 -41 13 -9 24 -23 24 -31 0 -11 7 -13
25 -9 19 5 23 3 19 -9 -6 -14 -2 -17 29 -19 6 -1 18 -8 25 -16 10 -11 15 -12
18 -2 8 18 25 15 50 -9 12 -11 36 -21 53 -21 21 -1 30 -5 27 -13 -3 -8 7 -12
27 -13 17 0 33 -6 35 -11 2 -6 10 -11 18 -11 8 0 14 -7 14 -16 0 -10 6 -14 15
-11 8 4 17 2 20 -2 3 -5 13 -7 23 -5 10 3 31 -8 53 -29 45 -43 66 -51 72 -29
4 15 5 15 6 0 1 -11 7 -15 21 -11 14 4 20 0 20 -11 0 -10 6 -13 15 -10 8 4 15
1 15 -6 0 -7 7 -10 16 -6 23 9 54 -2 54 -19 0 -16 25 -26 45 -19 10 4 15 0 15
-14 0 -25 25 -35 41 -16 10 13 14 13 29 -1 9 -8 22 -15 28 -15 7 0 12 -4 12
-9 0 -5 20 -19 45 -31 25 -12 45 -26 45 -31 0 -6 6 -9 13 -8 6 1 19 0 27 -4
14 -5 57 -13 119 -21 13 -2 26 -8 30 -13 3 -6 18 -13 34 -17 15 -3 35 -14 45
-24 10 -9 26 -19 37 -20 10 -2 35 -15 54 -28 20 -13 43 -24 52 -24 21 0 62
-41 140 -143 33 -43 68 -81 77 -84 9 -4 23 -15 30 -25 7 -10 19 -18 27 -18 8
0 19 -8 24 -17 6 -10 11 -15 11 -11 0 4 15 -1 33 -12 17 -11 42 -20 55 -20 12
0 22 -6 22 -13 0 -9 11 -12 33 -11 34 3 110 -12 140 -28 12 -6 28 -4 48 6 26
13 29 13 29 -1 0 -12 3 -13 14 -4 9 7 48 12 98 12 55 0 78 3 68 9 -10 6 12 8
63 6 43 -3 77 0 77 5 0 5 9 9 21 9 11 0 17 -4 14 -10 -10 -16 11 -11 36 9 20
16 25 17 38 3 9 -9 16 -11 19 -4 2 6 10 8 18 5 8 -3 21 0 29 7 9 7 18 10 22 6
3 -3 1 -6 -6 -6 -7 0 -9 -5 -6 -11 5 -6 11 -4 19 6 9 13 17 14 39 6 23 -9 36
-7 77 14 28 14 50 30 50 36 0 14 40 64 41 53 4 -23 17 110 18 179 1 49 5 76
11 72 15 -9 12 22 -4 53 -44 85 -124 112 -323 112 -82 0 -204 -7 -273 -16 -69
-8 -159 -19 -200 -24 -88 -10 -327 -46 -401 -60 -28 -6 -82 -10 -119 -10 -54
0 -73 4 -95 22 -15 12 -36 22 -47 23 -10 1 -38 23 -61 49 -31 36 -50 49 -69
49 -30 0 -50 17 -46 38 2 7 -37 43 -87 81 -49 38 -116 89 -147 114 -74 58
-198 142 -273 184 -33 18 -67 39 -75 45 -26 21 -163 91 -236 120 -38 15 -73
31 -79 35 -5 4 -53 26 -105 48 -90 38 -156 61 -383 131 -53 17 -111 38 -127
46 -17 9 -30 11 -30 6z"/>
<path d="M6870 4772 c0 -5 7 -13 16 -16 10 -4 14 -1 12 6 -5 15 -28 23 -28 10z"/>
<path d="M6905 4680 c3 -5 8 -10 11 -10 2 0 4 5 4 10 0 6 -5 10 -11 10 -5 0
-7 -4 -4 -10z"/>
<path d="M6925 4640 c-3 -5 1 -10 9 -10 9 0 16 5 16 10 0 6 -4 10 -9 10 -6 0
-13 -4 -16 -10z"/>
<path d="M6985 4500 c3 -5 8 -10 11 -10 2 0 4 5 4 10 0 6 -5 10 -11 10 -5 0
-7 -4 -4 -10z"/>
<path d="M7021 4503 c0 -6 -4 -20 -7 -30 -5 -14 -4 -15 5 -7 7 7 11 20 8 30
-3 11 -5 14 -6 7z"/>
<path d="M7020 4400 c0 -5 5 -10 10 -10 6 0 10 5 10 10 0 6 -4 10 -10 10 -5 0
-10 -4 -10 -10z"/>
<path d="M6940 4338 c0 -10 4 -18 8 -18 13 0 48 29 35 30 -6 0 -15 -5 -19 -11
-4 -8 -9 -7 -15 2 -7 11 -9 10 -9 -3z"/>
<path d="M6947 4153 c-4 -3 -7 -15 -7 -25 0 -13 7 -18 25 -18 14 0 25 5 25 10
0 6 -7 10 -16 10 -10 0 -14 6 -10 15 5 15 -5 20 -17 8z"/>
<path d="M6830 4103 c-13 -15 -12 -16 4 -10 10 4 20 7 22 7 2 0 4 5 4 10 0 15
-13 12 -30 -7z"/>
<path d="M6940 4091 c0 -11 31 -24 39 -16 3 3 -1 10 -9 15 -19 12 -30 12 -30
1z"/>
<path d="M6860 4080 c0 -5 5 -10 10 -10 6 0 10 5 10 10 0 6 -4 10 -10 10 -5 0
-10 -4 -10 -10z"/>
<path d="M6920 4014 c0 -14 3 -14 15 -4 8 7 15 14 15 16 0 2 -7 4 -15 4 -8 0
-15 -7 -15 -16z"/>
<path d="M6770 3980 c-8 -5 -11 -12 -7 -16 4 -4 13 -2 19 4 15 15 7 24 -12 12z"/>
<path d="M6810 3923 c0 -14 3 -23 7 -19 10 10 11 46 1 46 -4 0 -8 -12 -8 -27z"/>
<path d="M6730 3924 c0 -8 5 -12 10 -9 6 3 10 10 10 16 0 5 -4 9 -10 9 -5 0
-10 -7 -10 -16z"/>
<path d="M7038 3923 c-17 -20 -13 -43 7 -43 15 0 26 33 16 49 -5 8 -12 6 -23
-6z"/>
<path d="M6810 3719 c0 -5 5 -7 10 -4 6 3 10 8 10 11 0 2 -4 4 -10 4 -5 0 -10
-5 -10 -11z"/>
<path d="M6771 3684 c0 -11 3 -14 6 -6 3 7 2 16 -1 19 -3 4 -6 -2 -5 -13z"/>
<path d="M6550 3669 c0 -5 5 -7 10 -4 6 3 10 8 10 11 0 2 -4 4 -10 4 -5 0 -10
-5 -10 -11z"/>
<path d="M6610 3650 c0 -5 5 -10 10 -10 6 0 10 5 10 10 0 6 -4 10 -10 10 -5 0
-10 -4 -10 -10z"/>
<path d="M6685 3641 c-3 -5 -1 -12 4 -15 5 -3 11 1 15 9 6 16 -9 21 -19 6z"/>
<path d="M6460 3620 c0 -5 5 -10 10 -10 6 0 10 5 10 10 0 6 -4 10 -10 10 -5 0
-10 -4 -10 -10z"/>
<path d="M6386 3551 c-4 -7 -5 -15 -2 -18 9 -9 19 4 14 18 -4 11 -6 11 -12 0z"/>
<path d="M3616 3536 c-31 -12 -276 -248 -276 -266 0 -5 -3 -9 -7 -8 -11 4 -53
-34 -47 -43 2 -4 -9 -12 -25 -17 -34 -12 -144 -119 -136 -132 3 -6 -1 -7 -9
-4 -9 3 -19 -3 -26 -16 -10 -18 -9 -21 2 -15 7 4 -34 -40 -92 -99 -92 -93
-136 -130 -114 -95 17 27 -31 -12 -128 -106 -57 -56 -109 -113 -115 -128 -7
-15 -19 -27 -26 -27 -20 0 -69 -59 -63 -75 3 -8 -6 -30 -20 -50 -13 -20 -24
-39 -24 -44 0 -4 -10 -13 -23 -20 -13 -7 -24 -19 -25 -27 -1 -8 -3 -20 -4 -27
-1 -7 -16 -24 -35 -37 -18 -14 -36 -36 -39 -50 -4 -14 -12 -29 -18 -35 -16
-14 -39 -66 -40 -90 -1 -11 -7 -20 -15 -20 -22 0 -69 -85 -70 -125 -1 -37 -26
-84 -41 -75 -14 9 -50 -59 -43 -83 6 -25 7 -26 34 -11 11 6 18 16 16 23 -3 7
15 33 40 57 25 24 57 59 71 77 13 17 30 32 36 32 6 0 37 28 68 63 31 35 90 97
130 138 40 40 72 77 71 80 -1 3 8 11 20 18 12 6 42 35 67 63 135 154 209 228
226 228 8 0 14 5 14 11 0 12 25 39 36 39 4 0 31 24 59 53 68 68 267 261 327
315 33 29 56 42 77 42 23 0 42 14 94 70 46 49 64 76 60 89 -3 13 8 32 34 59
104 108 119 132 94 158 -6 5 -22 33 -38 63 -16 30 -33 55 -38 57 -6 1 -23 -3
-39 -10z"/>
<path d="M6263 3501 c-20 -17 -21 -20 -7 -32 17 -14 28 -5 39 29 8 27 -2 28
-32 3z"/>
<path d="M6440 3500 c0 -5 5 -10 10 -10 6 0 10 5 10 10 0 6 -4 10 -10 10 -5 0
-10 -4 -10 -10z"/>
<path d="M6270 3431 c0 -5 5 -13 10 -16 6 -3 10 -2 10 4 0 5 -4 13 -10 16 -5
3 -10 2 -10 -4z"/>
<path d="M6170 3309 c0 -5 5 -7 10 -4 6 3 10 8 10 11 0 2 -4 4 -10 4 -5 0 -10
-5 -10 -11z"/>
<path d="M5890 3164 c0 -28 15 -25 23 6 3 13 0 20 -9 20 -8 0 -14 -10 -14 -26z"/>
<path d="M6151 3094 c0 -11 3 -14 6 -6 3 7 2 16 -1 19 -3 4 -6 -2 -5 -13z"/>
<path d="M5725 3020 c-18 -7 -18 -8 -2 -14 46 -16 49 -16 43 -1 -3 9 0 15 10
15 8 0 17 -7 20 -15 4 -8 10 -13 15 -10 4 3 6 12 2 20 -6 16 -55 19 -88 5z"/>
<path d="M5710 2974 c0 -9 24 -30 43 -37 11 -4 17 -2 17 9 0 9 -5 12 -12 8 -8
-5 -9 -2 -5 9 5 13 1 17 -18 17 -14 0 -25 -3 -25 -6z"/>
<path d="M5705 2900 c3 -5 8 -10 11 -10 2 0 4 5 4 10 0 6 -5 10 -11 10 -5 0
-7 -4 -4 -10z"/>
<path d="M7148 2773 c-6 -184 3 -513 12 -513 13 0 13 597 0 605 -5 3 -10 -33
-12 -92z"/>
<path d="M5620 2850 c0 -5 -8 -10 -17 -10 -16 -1 -16 -2 1 -15 28 -21 36 -19
36 10 0 14 -4 25 -10 25 -5 0 -10 -4 -10 -10z"/>
<path d="M5785 2840 c-3 -5 -1 -10 4 -10 6 0 11 5 11 10 0 6 -2 10 -4 10 -3 0
-8 -4 -11 -10z"/>
<path d="M5680 2773 c0 -6 -9 -13 -20 -16 -19 -5 -29 -27 -12 -27 14 0 46 39
39 47 -4 3 -7 2 -7 -4z"/>
<path d="M5466 2664 c-9 -24 -7 -28 9 -14 17 14 20 30 6 30 -5 0 -12 -7 -15
-16z"/>
<path d="M5295 2580 c3 -5 10 -10 16 -10 5 0 9 5 9 10 0 6 -7 10 -16 10 -8 0
-12 -4 -9 -10z"/>
<path d="M5350 2570 c0 -5 5 -10 11 -10 5 0 7 5 4 10 -3 6 -8 10 -11 10 -2 0
-4 -4 -4 -10z"/>
<path d="M5270 2449 c0 -5 5 -7 10 -4 6 3 10 8 10 11 0 2 -4 4 -10 4 -5 0 -10
-5 -10 -11z"/>
<path d="M5196 2344 c-4 -10 -1 -14 6 -12 15 5 23 28 10 28 -5 0 -13 -7 -16
-16z"/>
<path d="M5136 2314 c-3 -8 -10 -13 -15 -9 -5 3 -12 1 -16 -5 -4 -6 6 -10 24
-10 24 0 31 4 31 20 0 24 -15 27 -24 4z"/>
<path d="M5195 2309 c-11 -17 1 -21 15 -4 8 9 8 15 2 15 -6 0 -14 -5 -17 -11z"/>
<path d="M5080 2270 c0 -5 5 -10 10 -10 6 0 10 5 10 10 0 6 -4 10 -10 10 -5 0
-10 -4 -10 -10z"/>
<path d="M5036 2245 c-22 -17 -17 -29 8 -19 9 3 16 12 16 20 0 17 0 17 -24 -1z"/>
<path d="M5151 2201 c-7 -5 -9 -11 -5 -14 5 -3 15 1 22 9 14 16 5 18 -17 5z"/>
<path d="M5054 2145 c-2 -32 12 -32 18 0 3 15 1 25 -6 25 -6 0 -12 -11 -12
-25z"/>
<path d="M4978 2143 c-4 -14 2 -18 24 -20 19 -2 28 3 28 12 0 8 -4 15 -9 15
-5 0 -16 3 -24 6 -9 3 -16 -2 -19 -13z"/>
<path d="M4940 2120 c0 -5 5 -10 11 -10 5 0 7 5 4 10 -3 6 -8 10 -11 10 -2 0
-4 -4 -4 -10z"/>
<path d="M4771 2053 c-1 -18 19 -27 32 -13 9 10 8 12 -5 7 -9 -3 -19 -1 -22 6
-3 9 -5 9 -5 0z"/>
<path d="M4900 2027 c0 -10 8 -17 18 -17 9 0 13 4 7 8 -5 4 -13 11 -17 16 -5
5 -8 2 -8 -7z"/>
<path d="M4737 2023 c-10 -9 -9 -23 2 -23 5 0 11 7 15 15 5 15 -5 20 -17 8z"/>
<path d="M4740 1970 c0 -5 5 -10 10 -10 6 0 10 5 10 10 0 6 -4 10 -10 10 -5 0
-10 -4 -10 -10z"/>
<path d="M4770 1970 c0 -5 5 -10 10 -10 6 0 10 5 10 10 0 6 -4 10 -10 10 -5 0
-10 -4 -10 -10z"/>
<path d="M4750 1940 c0 -5 5 -10 10 -10 6 0 10 5 10 10 0 6 -4 10 -10 10 -5 0
-10 -4 -10 -10z"/>
<path d="M4705 1920 c3 -5 13 -10 21 -10 8 0 14 5 14 10 0 6 -9 10 -21 10 -11
0 -17 -4 -14 -10z"/>
<path d="M4600 1860 c0 -5 5 -10 10 -10 6 0 10 5 10 10 0 6 -4 10 -10 10 -5 0
-10 -4 -10 -10z"/>
<path d="M4643 1853 c9 -2 17 -9 17 -14 0 -5 5 -9 11 -9 8 0 8 5 -1 15 -7 8
-20 14 -29 14 -13 -1 -13 -2 2 -6z"/>
<path d="M4610 1825 c-6 -8 -10 -20 -7 -27 4 -8 6 -7 6 5 1 9 8 17 16 17 8 0
15 5 15 10 0 15 -16 12 -30 -5z"/>
<path d="M4482 1765 c-11 -13 -10 -15 7 -15 14 0 19 5 15 15 -7 18 -6 18 -22
0z"/>
<path d="M4600 1760 c0 -5 5 -10 11 -10 5 0 7 5 4 10 -3 6 -8 10 -11 10 -2 0
-4 -4 -4 -10z"/>
<path d="M4470 1713 c0 -27 19 -41 31 -22 5 9 4 15 -4 18 -7 2 -15 9 -19 15
-5 6 -8 2 -8 -11z"/>
<path d="M4440 1674 c0 -10 28 -33 33 -27 3 3 0 12 -8 19 -14 15 -25 18 -25 8z"/>
<path d="M4418 1638 c3 -14 1 -19 -6 -14 -7 4 -12 1 -12 -8 0 -21 26 -21 34 0
9 24 7 31 -8 37 -10 4 -12 0 -8 -15z"/>
<path d="M4355 1590 c3 -5 10 -10 16 -10 5 0 9 5 9 10 0 6 -7 10 -16 10 -8 0
-12 -4 -9 -10z"/>
<path d="M6810 1579 c0 -5 5 -7 10 -4 6 3 10 8 10 11 0 2 -4 4 -10 4 -5 0 -10
-5 -10 -11z"/>
<path d="M4460 1570 c0 -5 5 -10 10 -10 6 0 10 5 10 10 0 6 -4 10 -10 10 -5 0
-10 -4 -10 -10z"/>
<path d="M4305 1510 c3 -5 8 -10 11 -10 2 0 4 5 4 10 0 6 -5 10 -11 10 -5 0
-7 -4 -4 -10z"/>
<path d="M4383 1505 c-9 -24 1 -27 15 -5 8 13 8 20 2 20 -6 0 -13 -7 -17 -15z"/>
<path d="M4150 1410 c0 -5 5 -10 10 -10 6 0 10 5 10 10 0 6 -4 10 -10 10 -5 0
-10 -4 -10 -10z"/>
<path d="M7100 1363 c0 -10 -3 -36 -6 -58 l-5 -40 15 34 c18 38 21 81 6 81 -5
0 -10 -8 -10 -17z"/>
<path d="M4195 1350 c3 -5 8 -10 11 -10 2 0 4 5 4 10 0 6 -5 10 -11 10 -5 0
-7 -4 -4 -10z"/>
<path d="M4330 1330 c0 -5 5 -10 11 -10 5 0 7 5 4 10 -3 6 -8 10 -11 10 -2 0
-4 -4 -4 -10z"/>
<path d="M4173 1257 c5 -15 37 -22 37 -9 0 5 -9 12 -21 15 -13 3 -19 1 -16 -6z"/>
<path d="M4080 1241 c-15 -28 -12 -33 10 -19 21 13 27 38 10 38 -5 0 -14 -9
-20 -19z"/>
<path d="M3971 1167 c2 -1 12 -9 22 -16 14 -12 17 -11 17 3 0 10 -8 16 -22 16
-12 0 -19 -1 -17 -3z"/>
<path d="M3930 1140 c0 -5 7 -10 15 -10 8 0 15 5 15 10 0 6 -7 10 -15 10 -8 0
-15 -4 -15 -10z"/>
<path d="M3917 1109 c6 -22 23 -26 23 -5 0 8 -6 16 -14 19 -10 4 -12 0 -9 -14z"/>
<path d="M6655 1110 c-3 -5 -1 -10 4 -10 6 0 11 5 11 10 0 6 -2 10 -4 10 -3 0
-8 -4 -11 -10z"/>
<path d="M3900 1070 c0 -5 5 -10 11 -10 5 0 7 5 4 10 -3 6 -8 10 -11 10 -2 0
-4 -4 -4 -10z"/>
<path d="M3850 971 c0 -5 5 -13 10 -16 6 -3 10 -2 10 4 0 5 -4 13 -10 16 -5 3
-10 2 -10 -4z"/>
<path d="M3740 921 c0 -5 11 -8 25 -7 33 1 33 16 0 16 -14 0 -25 -4 -25 -9z"/>
<path d="M6728 923 c7 -3 16 -2 19 1 4 3 -2 6 -13 5 -11 0 -14 -3 -6 -6z"/>
<path d="M3750 890 c0 -5 5 -10 11 -10 5 0 7 5 4 10 -3 6 -8 10 -11 10 -2 0
-4 -4 -4 -10z"/>
<path d="M6565 890 c3 -5 8 -10 11 -10 2 0 4 5 4 10 0 6 -5 10 -11 10 -5 0 -7
-4 -4 -10z"/>
<path d="M3631 854 c0 -11 3 -14 6 -6 3 7 2 16 -1 19 -3 4 -6 -2 -5 -13z"/>
<path d="M6490 850 c0 -5 5 -10 10 -10 6 0 10 5 10 10 0 6 -4 10 -10 10 -5 0
-10 -4 -10 -10z"/>
<path d="M6796 841 c-4 -7 -5 -15 -2 -18 9 -9 19 4 14 18 -4 11 -6 11 -12 0z"/>
<path d="M3520 800 c0 -11 7 -20 15 -20 17 0 18 2 9 24 -9 23 -24 20 -24 -4z"/>
<path d="M3555 760 c-3 -5 3 -10 14 -10 12 0 21 5 21 10 0 6 -6 10 -14 10 -8
0 -18 -4 -21 -10z"/>
<path d="M3384 715 c-4 -9 -3 -19 1 -23 4 -4 10 -2 12 5 2 7 11 9 20 6 11 -4
14 -2 11 8 -7 20 -37 23 -44 4z"/>
<path d="M3530 720 c0 -5 5 -10 10 -10 6 0 10 5 10 10 0 6 -4 10 -10 10 -5 0
-10 -4 -10 -10z"/>
<path d="M6550 674 c0 -8 5 -12 10 -9 6 4 8 11 5 16 -9 14 -15 11 -15 -7z"/>
<path d="M6485 600 c-3 -5 -1 -10 4 -10 6 0 11 5 11 10 0 6 -2 10 -4 10 -3 0
-8 -4 -11 -10z"/>
<path d="M3305 590 c-3 -5 -1 -10 4 -10 6 0 11 5 11 10 0 6 -2 10 -4 10 -3 0
-8 -4 -11 -10z"/>
<path d="M6456 591 c-4 -7 -5 -15 -2 -18 9 -9 19 4 14 18 -4 11 -6 11 -12 0z"/>
<path d="M6560 590 c0 -5 5 -10 10 -10 6 0 10 5 10 10 0 6 -4 10 -10 10 -5 0
-10 -4 -10 -10z"/>
<path d="M3200 570 c0 -5 5 -10 11 -10 5 0 7 5 4 10 -3 6 -8 10 -11 10 -2 0
-4 -4 -4 -10z"/>
<path d="M3115 560 c-3 -5 -1 -10 4 -10 6 0 11 5 11 10 0 6 -2 10 -4 10 -3 0
-8 -4 -11 -10z"/>
<path d="M3140 559 c0 -5 5 -7 10 -4 6 3 10 8 10 11 0 2 -4 4 -10 4 -5 0 -10
-5 -10 -11z"/>
<path d="M3171 544 c0 -11 3 -14 6 -6 3 7 2 16 -1 19 -3 4 -6 -2 -5 -13z"/>
<path d="M6430 540 c0 -10 9 -16 25 -15 14 0 25 3 25 8 0 4 0 11 0 16 0 5 -11
8 -25 7 -15 0 -25 -7 -25 -16z"/>
<path d="M6510 540 c0 -13 11 -13 30 0 12 8 11 10 -7 10 -13 0 -23 -4 -23 -10z"/>
<path d="M2880 510 c0 -5 5 -10 10 -10 6 0 10 5 10 10 0 6 -4 10 -10 10 -5 0
-10 -4 -10 -10z"/>
<path d="M3220 510 c0 -5 5 -10 10 -10 6 0 10 5 10 10 0 6 -4 10 -10 10 -5 0
-10 -4 -10 -10z"/>
<path d="M3145 490 c-3 -5 -1 -10 4 -10 6 0 11 5 11 10 0 6 -2 10 -4 10 -3 0
-8 -4 -11 -10z"/>
<path d="M6350 489 c0 -5 5 -7 10 -4 6 3 10 8 10 11 0 2 -4 4 -10 4 -5 0 -10
-5 -10 -11z"/>
<path d="M6478 493 c6 -2 18 -2 25 0 6 3 1 5 -13 5 -14 0 -19 -2 -12 -5z"/>
<path d="M6406 481 c-6 -9 35 -24 43 -15 6 5 -18 24 -31 24 -4 0 -9 -4 -12 -9z"/>
<path d="M6338 463 c7 -3 16 -2 19 1 4 3 -2 6 -13 5 -11 0 -14 -3 -6 -6z"/>
<path d="M6372 441 c-1 -8 -9 -22 -16 -30 -17 -19 -7 -44 13 -32 8 5 11 21 8
42 -2 19 -5 28 -5 20z"/>
<path d="M6397 430 c-3 -11 -4 -20 -3 -20 1 0 9 9 19 20 13 15 14 20 3 20 -7
0 -16 -9 -19 -20z"/>
<path d="M6300 380 c0 -11 5 -20 10 -20 6 0 10 9 10 20 0 11 -4 20 -10 20 -5
0 -10 -9 -10 -20z"/>
</g>
</svg>
